{"title":"A.Few.Good.Men.1992.1080p.BluRay.H264.AAC.Mp4.Raven","uid":11172806,"size":2178277404,"categoryP":"video","categoryS":"hd___movies","magnet":"?xt=urn:btih:83b2b05b8de7deed1c5c19c9d5cb08fe2b180e09&amp;dn=A.Few.Good.Men.1992.1080p.BluRay.H264.AAC.Mp4.Raven&amp;tr=udp%3A%2F%2Ftracker.openbittorrent.com%3A80&amp;tr=udp%3A%2F%2Fopen.demonii.com%3A1337&amp;tr=udp%3A%2F%2Ftracker.coppersurfer.tk%3A6969&amp;tr=udp%3A%2F%2Fexodus.desync.com%3A6969","seeders":1,"leechers":1,"uploader":"Raven1969","files":-1,"time":1412722386,"description":"A.Few.Good.Men.1992.1080p.BluRay.H264.AAC.Mp4.Raven.\n\n\n\n\n\n\nEnglish, Swedish, Indonesian, Finnish, Romanian, Danish, Hebrew, Vietnamese subs included.  \n\n\n\n\n\nRuntime:\n138 Mins\n\n\n\nScreen images:\n\n\n &lt;a href=&quot;\nhttp://i.imgur.com/5CGkOtU.png&quot; rel=&quot;nofollow&quot; target=&quot;_NEW&quot;&gt;\nhttp://i.imgur.com/5CGkOtU.png&lt;/a&gt;\n\n\n &lt;a href=&quot;\nhttp://i.imgur.com/R6czzti.png&quot; rel=&quot;nofollow&quot; target=&quot;_NEW&quot;&gt;\nhttp://i.imgur.com/R6czzti.png&lt;/a&gt;\n\n\n &lt;a href=&quot;\nhttp://i.imgur.com/sf7b6AJ.png&quot; rel=&quot;nofollow&quot; target=&quot;_NEW&quot;&gt;\nhttp://i.imgur.com/sf7b6AJ.png&lt;/a&gt;\n\n\n &lt;a href=&quot;\nhttp://i.imgur.com/MYPsdua.png&quot; rel=&quot;nofollow&quot; target=&quot;_NEW&quot;&gt;\nhttp://i.imgur.com/MYPsdua.png&lt;/a&gt;\n\n\n &lt;a href=&quot;\nhttp://i.imgur.com/UjhvNLT.png&quot; rel=&quot;nofollow&quot; target=&quot;_NEW&quot;&gt;\nhttp://i.imgur.com/UjhvNLT.png&lt;/a&gt;\n\n\n &lt;a href=&quot;\nhttp://i.imgur.com/p4N52Lw.png&quot; rel=&quot;nofollow&quot; target=&quot;_NEW&quot;&gt;\nhttp://i.imgur.com/p4N52Lw.png&lt;/a&gt;\n\n\n\nIMDB:\n\n\n\n &lt;a href=&quot;\nhttp://www.imdb.com/title/tt0104257&quot; rel=&quot;nofollow&quot; target=&quot;_NEW&quot;&gt;\nhttp://www.imdb.com/title/tt0104257&lt;/a&gt;\n\n\n\n\nIMDB Rating:  7.6\n\n\n\n\nStoryline:\n\nNeo military lawyer Kaffee defends Marines accused of murder; they contend they were acting under orders.\nIn this dramatic courtroom thriller, LT Daniel Kaffee, a Navy lawyer who has never seen the inside of the courtroom, defends two stubborn Marines who have been accused of murdering a colleague. Kaffee is known as being lazy and had arranged for a plea bargain. Downey's Aunt Ginny appoints Cmdr. Galloway to represent him. Also on the legal staff is LTJG Sam Weinberg. The team rounds up many facts and Kaffee is discovering that he is really cut out for trial work. The defense is originally based upon the fact that PFC Santiago, the victim, was given a &quot;CODE RED&quot;. Santiago was basically a screw-up. At Gitmo, screw-ups aren't tolerated. Especially by Col. Nathan Jessup. In Cuba, Jessup and two senior officers try to give all the help they can, but Kaffee knows something's fishy. In the conclusion of the film, the fireworks are set off by a confrontation between Jessup and Kaffee. \n\n\n\n\nGeneral\nFormat                                   : MPEG-4\nFormat profile                           : Base Media\nCodec ID                                 : isom\nFile size                                : 2.02 GiB\nDuration                                 : 2h 18mn\nOverall bit rate mode                    : Variable\nOverall bit rate                         : 2 098 Kbps\nEncoded date                             : UTC 2014-10-07 05:42:45\nTagged date                              : UTC 2014-10-07 05:42:45\nWriting application                      : My MP4Box GUI 0.6.0.6 &lt;http://my-mp4box-gui.zymichost.com&gt;\n\nVideo\nID                                       : 1\nFormat                                   : AVC\nFormat/Info                              : Advanced Video Codec\nFormat profile                           : &lt;a class=&quot;__cf_email__&quot; href=&quot;/cdn-cgi/l/email-protection&quot; data-cfemail=&quot;5d15343a351d1169736d&quot;&gt;[email&amp;#160;protected]&lt;/a&gt;&lt;script cf-hash='f9e31' type=&quot;text/javascript&quot;&gt;\n/* &lt;![CDATA[ */!function(){try{var t=&quot;currentScript&quot;in document?document.currentScript:function(){for(var t=document.getElementsByTagName(&quot;script&quot;),e=t.length;e--;)if(t[e].getAttribute(&quot;cf-hash&quot;))return t[e]}();if(t&amp;&amp;t.previousSibling){var e,r,n,i,c=t.previousSibling,a=c.getAttribute(&quot;data-cfemail&quot;);if(a){for(e=&quot;&quot;,r=parseInt(a.substr(0,2),16),n=2;a.length-n;n+=2)i=parseInt(a.substr(n,2),16)^r,e+=String.fromCharCode(i);e=document.createTextNode(e),c.parentNode.replaceChild(e,c)}}}catch(u){}}();/* ]]&gt; */&lt;/script&gt;\nFormat settings, CABAC                   : Yes\nFormat settings, ReFrames                : 5 frames\nCodec ID                                 : avc1\nCodec ID/Info                            : Advanced Video Coding\nDuration                                 : 2h 18mn\nBit rate                                 : 2 000 Kbps\nMaximum bit rate                         : 20.5 Mbps\nWidth                                    : 1 920 pixels\nHeight                                   : 816 pixels\nDisplay aspect ratio                     : 2.35:1\nFrame rate mode                          : Constant\nFrame rate                               : 23.976 fps\nColor space                              : YUV\nChroma subsampling                       : 4:2:0\nBit depth                                : 8 bits\nScan type                                : Progressive\nBits/(Pixel*Frame)                       : 0.053\nStream size                              : 1.93 GiB (95%)\nTitle                                    : A.Few.Good.Men.1992.1080p.BluRay.H264.AAC.Mp4.Raven.mp4\nWriting library                          : x264 core 142 \nLanguage                                 : English\nEncoded date                             : UTC 2014-10-07 05:29:40\nTagged date                              : UTC 2014-10-07 05:43:14\n\nAudio\nID                                       : 2\nFormat                                   : AAC\nFormat/Info                              : Advanced Audio Codec\nFormat profile                           : HE-AAC / LC\nCodec ID                                 : 40\nDuration                                 : 2h 18mn\nBit rate mode                            : Variable\nBit rate                                 : 96.0 Kbps\nMaximum bit rate                         : 103 Kbps\nChannel(s)                               : 2 channels\nChannel positions                        : Front: L R\nSampling rate                            : 48.0 KHz / 24.0 KHz\nCompression mode                         : Lossy\nStream size                              : 93.5 MiB (5%)\nTitle                                    : A.Few.Good.Men.1992.1080p.BluRay.H264.AAC.Mp4.Raven.aac\nEncoded date                             : UTC 2014-10-07 05:43:11\nTagged date                              : UTC 2014-10-07 05:43:14\n\n\n\n\nPLEASE  SEED FOR AS LONG AS POSSIBLE TO KEEP THE TORRENT ALIVE :-)\n\n\n\n\n","torrent":{"xt":"urn:btih:83b2b05b8de7deed1c5c19c9d5cb08fe2b180e09","amp;dn":"A.Few.Good.Men.1992.1080p.BluRay.H264.AAC.Mp4.Raven","amp;tr":["udp%3A%2F%2Ftracker.openbittorrent.com%3A80","udp%3A%2F%2Fopen.demonii.com%3A1337","udp%3A%2F%2Ftracker.coppersurfer.tk%3A6969","udp%3A%2F%2Fexodus.desync.com%3A6969"],"infoHash":"83b2b05b8de7deed1c5c19c9d5cb08fe2b180e09","infoHashBuffer":{"type":"Buffer","data":[131,178,176,91,141,231,222,237,28,92,25,201,213,203,8,254,43,24,14,9]},"announce":[],"urlList":[]}}